# xmcd
#
# Track frame offsets:
#	150
#	12935
#	26540
#	35702
#	46710
#	59052
#	69087
#	79005
#	88720
#	99430
#	110000
#	121645
#	133810
#	147090
#	158862
#	172295
#	184830
#	197775
#	209122
#	228362
#	240390
#	251530
#
# Disc length: 3511 seconds
#
# Revision: 1
# Processed by: cddbd v1.5.2PL0 Copyright (c) Steve Scherf et al.
# Submitted via: audiograbber 1.83.01
#
DISCID=330db516
DTITLE=Various Artists - Best of Patsy Cline and Tammy Wynette
DYEAR=1990
DGENRE=Country
TTITLE0=Patsy Cline - I Fall to Pieces
TTITLE1=Patsy Cline - She's Got You
TTITLE2=Patsy Cline - Walkin' After Midnight
TTITLE3=Patsy Cline - South of the Border
TTITLE4=Patsy Cline - Crazy
TTITLE5=Patsy Cline - Foolin' Around
TTITLE6=Patsy Cline - Heartaches
TTITLE7=Patsy Cline - True Love
TTITLE8=Patsy Cline - Your Cheatin' Heart
TTITLE9=Patsy Cline - San Antonio Rose
TTITLE10=Patsy Cline - Sweet Dreams
TTITLE11=Tammy Wynette - Stand by Your Man
TTITLE12=Tammy Wynette - D-I-V-O-R-C-E
TTITLE13=Tammy Wynette - I Don't Wanna Play House
TTITLE14=Tammy Wynette - Woman to Woman
TTITLE15=Tammy Wynette - Kids Say the Darndest Things
TTITLE16=Tammy Wynette - My Man (Understands)
TTITLE17=Tammy Wynette - Good Lovin' (Makes it Right)
TTITLE18=Tammy Wynette - Bedtime Story
TTITLE19=Tammy Wynette - He Loves Me All the Way
TTITLE20=Tammy Wynette - Run Woman Run
TTITLE21=Tammy Wynette - Till I Get it Right
EXTD=freedb: 330db516, cdplayer.ini: 2498DCD, Track frame offsets: 150 12935 26
EXTD=540 35702 46710 59052 69087 79005 88720 99430 110000 121645 133810 147090 
EXTD=158862 172295 184830 197775 209122 228362 240390 251530, Disc length:  sec
EXTD=onds.
EXTT0=
EXTT1=
EXTT2=
EXTT3=
EXTT4=
EXTT5=
EXTT6=
EXTT7=
EXTT8=
EXTT9=
EXTT10=
EXTT11=
EXTT12=
EXTT13=
EXTT14=
EXTT15=
EXTT16=
EXTT17=
EXTT18=
EXTT19=
EXTT20=
EXTT21=
PLAYORDER=
